<svg width="87" height="74" viewBox="0 0 87 74" fill="none" xmlns="http://www.w3.org/2000/svg">
<g opacity="0.1">
<path d="M36.4613 0.569328C19.5354 4.23015 6.23195 17.2639 1.92239 34.3688C0.23604 41.1855 -0.294847 50.1797 0.735699 55.5131C3.35891 69.6199 15.4132 77.194 28.1233 72.7127C31.9644 71.3557 35.0872 68.8625 37.4294 65.2333C39.2719 62.3298 39.9902 59.7736 39.9902 55.9865C39.9902 50.4953 38.3663 46.1402 35.056 42.7634C31.0587 38.6608 24.407 36.8304 19.3168 38.4399L17.4118 39.0395V38.3452C17.443 35.852 19.2855 30.992 21.4091 27.8361C25.219 22.1555 31.9644 17.1377 38.0852 15.4335L40.0526 14.897L40.1463 7.41758C40.2088 0.474655 40.1775 -0.0302887 39.6779 0.00127411C39.3656 0.00127411 37.9291 0.285301 36.4613 0.569328Z" fill="#828282"/>
<path d="M83.5521 0.440193C67.877 3.85081 55.1832 15.4281 50.2041 30.9167C48.1756 37.2686 47.1306 46.2489 47.7453 52.0688C48.8825 62.9578 54.4456 70.4048 63.1437 72.7203C65.7562 73.4399 70.6124 73.4399 73.2557 72.7203C79.5257 70.9993 84.7815 65.8364 86.3182 59.86C87.3018 55.9175 86.6563 50.0037 84.8122 46.2801C83.675 44.0273 80.6629 40.8983 78.5114 39.7092C74.6695 37.6441 69.4752 36.9557 66.2787 38.0821L64.6498 38.6454V37.7067C64.6498 35.1096 66.3095 30.7603 68.6761 27.3184C72.3644 21.8426 79.7101 16.4607 85.1196 15.2404L86.7793 14.8649V7.38659C86.7793 -1.12431 87.1481 -0.310768 83.5521 0.440193Z" fill="#828282"/>
</g>
</svg>
