<svg width="76" height="65" viewBox="0 0 76 65" fill="none" xmlns="http://www.w3.org/2000/svg">
<g opacity="0.3">
<path d="M31.5786 0.496326C16.8344 3.68527 5.24576 15.039 1.4917 29.9391C0.0227179 35.8771 -0.439739 43.712 0.457972 48.358C2.74305 60.6464 13.2436 67.2442 24.3153 63.3405C27.6613 62.1584 30.3817 59.9866 32.4219 56.8252C34.0269 54.296 34.6526 52.0693 34.6526 48.7703C34.6526 43.9869 33.238 40.1932 30.3545 37.2517C26.8724 33.6778 21.0781 32.0834 16.644 33.4854L14.9846 34.0077V33.4029C15.0118 31.2312 16.6168 26.9976 18.4666 24.2485C21.7854 19.3001 27.6613 14.9291 32.9932 13.4445L34.707 12.9772L34.7886 6.46185C34.843 0.413857 34.8158 -0.026001 34.3806 0.00148773C34.1085 0.00148773 32.8572 0.248909 31.5786 0.496326Z" fill="#E78478"/>
<path d="M72.5996 0.383663C58.945 3.35466 47.8874 13.4397 43.5501 26.9318C41.783 32.465 40.8727 40.2877 41.4082 45.3574C42.3988 54.8428 47.2449 61.33 54.8218 63.347C57.0976 63.9739 61.3278 63.9739 63.6304 63.347C69.0922 61.8478 73.6705 57.3505 75.0092 52.1444C75.866 48.71 75.3037 43.5585 73.6973 40.3149C72.7067 38.3524 70.0828 35.6268 68.2087 34.591C64.862 32.792 60.3372 32.1924 57.5527 33.1736L56.1337 33.6643V32.8466C56.1337 30.5842 57.5795 26.7955 59.6411 23.7973C62.8539 19.0273 69.2529 14.3392 73.965 13.2761L75.4108 12.9491V6.43468C75.4108 -0.979179 75.7321 -0.2705 72.5996 0.383663Z" fill="#E78478"/>
</g>
</svg>
